# xmcd
#
# Track frame offsets:
#	225
#	21378
#	38456
#	66101
#	87254
#
# Disc length: 1382 seconds
#
# Revision: 1
# Processed by: cddbd v1.5PL3 Copyright (c) Steve Scherf et al.
# Submitted via: CDex 1.50Beta5
#
DISCID=36056305
DTITLE=長崎みなみ with MEGAやっちゅーキャノン - はいぱぁ☆やっちゅー!! MEGA・みなみん♪
DYEAR=1900
DGENRE=
TTITLE0=はいぱぁ☆やっちゅー!! MEGA・みなみん♪
TTITLE1=絶叫!おねいさん!!
TTITLE2=はいぱぁ☆やっちゅー!! MEGA・みなみん♪(MEGAやっちゅーキャノン最大出力リミックス)
TTITLE3=はいぱぁ☆やっちゅー!! MEGA・みなみん♪(カラオケ)
TTITLE4=絶叫!おねいさん!!(カラオケ)
EXTD=
EXTT0=
EXTT1=
EXTT2=
EXTT3=
EXTT4=
PLAYORDER=
